<?xml version="1.0" standalone="no"?>
<!DOCTYPE svg PUBLIC "-//W3C//DTD SVG 20010904//EN"
 "http://www.w3.org/TR/2001/REC-SVG-20010904/DTD/svg10.dtd">
<svg version="1.0" xmlns="http://www.w3.org/2000/svg"
 width="500.000000pt" height="500.000000pt" viewBox="0 0 500.000000 500.000000"
 preserveAspectRatio="xMidYMid meet">

<g transform="translate(0.000000,500.000000) scale(0.100000,-0.100000)"
fill="#000000" stroke="none">
<path d="M4100 4383 c-11 -16 -396 -642 -855 -1393 -458 -751 -840 -1365 -847
-1364 -7 1 -204 126 -436 279 -386 253 -426 277 -450 269 -21 -7 -28 -17 -30
-44 -3 -35 0 -38 270 -255 150 -121 355 -286 456 -367 174 -141 184 -148 227
-148 39 0 50 5 83 38 23 24 166 267 384 653 191 338 561 992 823 1454 261 461
475 845 475 852 0 20 -38 53 -60 53 -11 0 -29 -12 -40 -27z"/>
</g>
</svg>
